<svg xmlns="http://www.w3.org/2000/svg" height="24" viewBox="0 96 960 960" width="24"><path d="M316 658q-19 0-32.5-13.5T270 612q0-19 13.5-32.5T316 566q19 0 32.5 13.5T362 612q0 19-13.5 32.5T316 658Zm164 0q-19 0-32.5-13.5T434 612q0-19 13.5-32.5T480 566q19 0 32.5 13.5T526 612q0 19-13.5 32.5T480 658Zm164 0q-19 0-32.5-13.5T598 612q0-19 13.5-32.5T644 566q19 0 32.5 13.5T690 612q0 19-13.5 32.5T644 658Zm-450 348q-43.725 0-74.863-31.138Q88 943.725 88 900V328q0-43.725 31.137-74.862Q150.275 222 194 222h8v-76h106v76h344v-76h106v76h8q43.725 0 74.862 31.138Q872 284.275 872 328v572q0 43.725-31.138 74.862Q809.725 1006 766 1006H194Zm0-106h572V476H194v424Z"/></svg>