<svg xmlns="http://www.w3.org/2000/svg" height="24" viewBox="0 96 960 960" width="24"><path d="M220.688 657.587q-34.036 0-57.862-23.804Q139 609.98 139 576q0-34.174 23.803-57.88 23.804-23.707 57.784-23.707 34.078 0 57.952 23.707 23.874 23.706 23.874 57.76 0 34.055-23.844 57.881t-57.881 23.826Zm259.432 0q-34.055 0-57.881-23.804Q398.413 609.98 398.413 576q0-34.174 23.804-57.88Q446.02 494.413 480 494.413q34.174 0 57.88 23.707 23.707 23.706 23.707 57.76 0 34.055-23.707 57.881-23.706 23.826-57.76 23.826Zm259.361 0q-34.106 0-58-23.804Q657.587 609.98 657.587 576q0-34.174 23.894-57.88 23.894-23.707 58-23.707t57.813 23.707Q821 541.826 821 575.88q0 34.055-23.706 57.881-23.707 23.826-57.813 23.826Z"/></svg>