<svg xmlns="http://www.w3.org/2000/svg" height="24" viewBox="0 96 960 960" width="24"><path d="M813 243v266H707v-85L578 553q17.051 28 26.026 59.5Q613 644 613 676q0 97.436-67.782 165.218Q477.436 909 380 909q-97.436 0-165.218-67.782Q147 773.436 147 676q0-97.436 67.782-165.218Q282.564 443 380 443q32.32 0 63.66 9Q475 461 503 478l129-129h-85V243h266ZM380 549q-52.614 0-89.807 37.193Q253 623.386 253 676q0 52.614 37.193 89.807Q327.386 803 380 803q52.614 0 89.807-37.193Q507 728.614 507 676q0-52.614-37.193-89.807Q432.614 549 380 549Z"/></svg>